<svg width="16" height="16" viewBox="0 0 16 16" fill="none" xmlns="http://www.w3.org/2000/svg">
<path d="M13.3332 6.66668C13.3332 9.99534 9.6405 13.462 8.4005 14.5327C8.1632 14.7111 7.83648 14.7111 7.59917 14.5327C6.35917 13.462 2.6665 9.99534 2.6665 6.66668C2.6665 3.72313 5.05629 1.33334 7.99984 1.33334C10.9434 1.33334 13.3332 3.72313 13.3332 6.66668" stroke="#0B2540" stroke-width="1.33333" stroke-linecap="round" stroke-linejoin="round"/>
<path d="M6 6.66666C6 7.77049 6.89617 8.66666 8 8.66666C9.10383 8.66666 10 7.77049 10 6.66666C10 5.56283 9.10383 4.66666 8 4.66666C6.89617 4.66666 6 5.56283 6 6.66666V6.66666" stroke="#0B2540" stroke-width="1.33333" stroke-linecap="round" stroke-linejoin="round"/>
</svg>
