<svg width="16" height="16" viewBox="0 0 16 16" fill="none" xmlns="http://www.w3.org/2000/svg">
<g clip-path="url(#clip0_27_1082)">
<path d="M8.00008 1.33331V2.66665M3.28674 3.28665L4.22674 4.22665M13.3334 7.99998H14.6667M12.7134 3.28665L11.7734 4.22665M10.6314 8.43331C10.7989 7.41895 10.3683 6.39867 9.52475 5.81097C8.68121 5.22326 7.57494 5.17282 6.68141 5.68131M8.66674 14.6666H4.66674C2.91266 14.6663 1.45897 13.3066 1.34157 11.5564C1.22416 9.80627 2.48321 8.26458 4.22153 8.02994C5.95985 7.7953 7.58259 8.948 7.93341 10.6666H8.66674C9.77057 10.6666 10.6667 11.5628 10.6667 12.6666C10.6667 13.7705 9.77057 14.6666 8.66674 14.6666" stroke="#0B2540" stroke-width="1.33333" stroke-linecap="round" stroke-linejoin="round"/>
</g>
<defs>
<clipPath id="clip0_27_1082">
<rect width="16" height="16" fill="white"/>
</clipPath>
</defs>
</svg>
